<svg width="121" height="121" fill="none" xmlns="http://www.w3.org/2000/svg"><circle cx="60.5" cy="60.5" r="57.5" fill="#fff" stroke="#F6F6F6" stroke-width="6"/><path d="M43 69v1a3 3 0 003 3h29.2a3 3 0 003-3V52a3 3 0 00-3-3H46a3 3 0 00-3 3v2.5" stroke="#444C58" stroke-width="2.5" stroke-linecap="round"/><path fill-rule="evenodd" clip-rule="evenodd" d="M44.164 49.052l13.219 12.526c1.604 1.52 4.203 1.52 5.807 0l13.219-12.526h-4.355L61.012 59.514c-.4.38-1.05.38-1.451 0L48.519 49.052h-4.355z" fill="#444C58"/><path d="M31 64.2h11.2m-5.15-5.25h9.5" stroke="#00AEEF" stroke-width="2.5" stroke-linecap="round"/></svg>