<svg width="50" height="50" viewBox="0 0 50 50" fill="none" xmlns="http://www.w3.org/2000/svg">
<circle cx="25" cy="25" r="24.5" fill="white" stroke="#E8EAED"/>
<path d="M24.992 17C20.576 17 17 20.584 17 25C17 29.416 20.576 33 24.992 33C29.416 33 33 29.416 33 25C33 20.584 29.416 17 24.992 17ZM28.2 28.2C28.126 28.2742 28.0381 28.333 27.9413 28.3731C27.8445 28.4133 27.7408 28.434 27.636 28.434C27.5312 28.434 27.4275 28.4133 27.3307 28.3731C27.2339 28.333 27.146 28.2742 27.072 28.2L24.44 25.568C24.3644 25.4939 24.3043 25.4056 24.2631 25.3081C24.2219 25.2106 24.2004 25.1058 24.2 25V21.8C24.2 21.36 24.56 21 25 21C25.44 21 25.8 21.36 25.8 21.8V24.672L28.2 27.072C28.512 27.384 28.512 27.888 28.2 28.2Z" fill="#444C58"/>
</svg>
