<svg width="50" height="50" viewBox="0 0 50 50" fill="none" xmlns="http://www.w3.org/2000/svg">
<circle cx="25" cy="25" r="24.5" fill="white" stroke="#F2F2F2"/>
<path d="M30.7796 28.3999L28.0413 25.9103C27.9119 25.7926 27.7418 25.7299 27.567 25.7353C27.3922 25.7407 27.2263 25.8138 27.1044 25.9392L25.4924 27.597C25.1044 27.5229 24.3244 27.2797 23.5214 26.4788C22.7185 25.6752 22.4753 24.8931 22.4033 24.5078L24.0597 22.8952C24.1852 22.7734 24.2585 22.6075 24.2639 22.4326C24.2693 22.2577 24.2064 22.0876 24.0886 21.9582L21.5996 19.2207C21.4818 19.091 21.318 19.0123 21.143 19.0013C20.9681 18.9904 20.7958 19.0481 20.6627 19.1621L19.2009 20.4157C19.0845 20.5326 19.015 20.6881 19.0056 20.8529C18.9955 21.0213 18.8028 25.0103 21.896 28.1049C24.5945 30.8026 27.9747 31 28.9056 31C29.0416 31 29.1252 30.996 29.1474 30.9946C29.3121 30.9854 29.4676 30.9156 29.5839 30.7986L30.8368 29.3362C30.9513 29.2035 31.0094 29.0313 30.9987 28.8564C30.988 28.6815 30.9094 28.5176 30.7796 28.3999Z" fill="#444C58"/>
</svg>
