<svg width="50" height="50" viewBox="0 0 50 50" fill="none" xmlns="http://www.w3.org/2000/svg">
<circle cx="25" cy="25" r="24.5" fill="white" stroke="#E8EAED"/>
<path d="M21 20C20.4696 20 19.9609 20.2107 19.5858 20.5858C19.2107 20.9609 19 21.4696 19 22V22.201L25 25.432L31 22.202V22C31 21.4696 30.7893 20.9609 30.4142 20.5858C30.0391 20.2107 29.5304 20 29 20H21Z" fill="#444C58"/>
<path d="M31 23.337L25.237 26.44C25.1642 26.4792 25.0827 26.4998 25 26.4998C24.9173 26.4998 24.8358 26.4792 24.763 26.44L19 23.337V28C19 28.5305 19.2107 29.0392 19.5858 29.4142C19.9609 29.7893 20.4696 30 21 30H29C29.5304 30 30.0391 29.7893 30.4142 29.4142C30.7893 29.0392 31 28.5305 31 28V23.337Z" fill="#444C58"/>
</svg>
