<svg width="121" height="121" viewBox="0 0 121 121" fill="none" xmlns="http://www.w3.org/2000/svg">
<circle cx="60.5" cy="60.5" r="60.5" fill="white"/>
<path d="M46.5833 50.5002C47.7989 50.5002 48.9646 50.0173 49.8242 49.1578C50.6837 48.2983 51.1666 47.1325 51.1666 45.9169C51.1666 44.7014 50.6837 43.5356 49.8242 42.676C48.9646 41.8165 47.7989 41.3336 46.5833 41.3336C45.3677 41.3336 44.202 41.8165 43.3424 42.676C42.4829 43.5356 42 44.7014 42 45.9169C42 47.1325 42.4829 48.2983 43.3424 49.1578C44.202 50.0173 45.3677 50.5002 46.5833 50.5002Z" fill="#00AEEF"/>
<path d="M69.4998 77.9999C69.4998 75.5688 68.534 73.2373 66.815 71.5182C65.0959 69.7991 62.7643 68.8333 60.3332 68.8333C57.9021 68.8333 55.5705 69.7991 53.8514 71.5182C52.1324 73.2373 51.1666 75.5688 51.1666 77.9999H42C42 73.1377 43.9315 68.4746 47.3697 65.0364C50.8078 61.5983 55.4709 59.6667 60.3332 59.6667C65.1955 59.6667 69.8586 61.5983 73.2967 65.0364C76.7349 68.4746 78.6664 73.1377 78.6664 77.9999H69.4998Z" fill="#002D67"/>
<path d="M78.6666 45.9169C78.6666 47.1325 78.1837 48.2983 77.3242 49.1578C76.4647 50.0173 75.2989 50.5002 74.0833 50.5002C72.8677 50.5002 71.702 50.0173 70.8424 49.1578C69.9829 48.2983 69.5 47.1325 69.5 45.9169C69.5 44.7014 69.9829 43.5356 70.8424 42.676C71.702 41.8165 72.8677 41.3336 74.0833 41.3336C75.2989 41.3336 76.4647 41.8165 77.3242 42.676C78.1837 43.5356 78.6666 44.7014 78.6666 45.9169Z" fill="#00AEEF"/>
</svg>
