<svg width="86" height="86" viewBox="0 0 86 86" fill="none" xmlns="http://www.w3.org/2000/svg">
<circle cx="43" cy="43" r="43" fill="white"/>
<path d="M34.7234 34.0015H36.5551C38.2414 34.0015 39.9002 34.4279 41.3774 35.241L42.6106 35.9199M28.166 46.197L37.3436 52.9008C40.4857 55.196 44.7471 55.212 47.9064 52.9403L53.1575 49.1645" stroke="#444C58" stroke-width="1.5" stroke-linecap="round"/>
<rect x="31.241" y="30.0192" width="4.66628" height="16.9988" rx="2.25" transform="rotate(28.9233 31.241 30.0192)" stroke="#444C58" stroke-width="1.5" stroke-linecap="round"/>
<path d="M45.3764 33.4534L42.7168 35.9199L36.3887 42.1318M45.3764 33.4534H50.2628M45.3764 33.4534L36.3887 42.1318M57.3907 46.197L53.2637 49.1645L45.3764 43.0454C45.1166 43.3499 44.0374 44.1873 41.7997 45.1008C39.5619 46.0143 37.2599 43.5021 36.3887 42.1318" stroke="#00AEEF" stroke-width="1.5" stroke-linecap="round"/>
<rect x="-0.253956" y="1.02981" width="4.66628" height="16.9988" rx="2.25" transform="matrix(-0.855843 0.517236 0.517236 0.855843 53.4277 29.356)" stroke="#00AEEF" stroke-width="1.5" stroke-linecap="round"/>
</svg>
