<svg xmlns="http://www.w3.org/2000/svg" width="57.857" height="8.111" viewBox="0 0 57.857 8.111">
  <path id="lisingLogoBottom" d="M8.267,30.117H6.645V23.629H4.212q-.595,0-.811.811l-1.6,5.677H.156q1.5-4.866,1.622-5.677.716-2.433,2.433-2.432H8.267Zm8.653,0h1.622v-8.11H16.92L12.053,27.63V22.007H10.431v8.11h1.623l4.866-5.623Zm11.42-4.056a3.682,3.682,0,0,1,.473,1.892q0,2.164-2.433,2.163H20.7V28.495h5.677a.811.811,0,0,0,0-1.622H23.947V25.252h2.433a.811.811,0,0,0,0-1.622H20.7V22.008h6.015q2.1,0,2.1,2.432A3.2,3.2,0,0,1,28.34,26.062Zm9.125,4.055h1.622v-8.11H37.465L32.6,27.63V22.007H30.977v8.11H32.6l4.866-5.623Zm11.9,0H47.74V26.873H42.873v3.244H41.251v-8.11h1.622v3.244H47.74V22.007h1.622Zm3.785-6.488h4.866V22.007H51.524v8.111h1.622Z" transform="translate(-0.156 -22.007)" fill="#00386C" fill-rule="evenodd"/>
</svg>
