<svg width="59" height="31" viewBox="0 0 59 31" fill="none" xmlns="http://www.w3.org/2000/svg">
<path fill-rule="evenodd" clip-rule="evenodd" d="M16.8971 3.64528H10.1382V17.1629H6.75883V3.64528H0V0.265869H16.8971V3.64528ZM36.8932 17.1629H25.0652C21.6858 17.1629 19.9961 15.4732 19.9961 12.0938V5.33499C19.9961 1.95558 21.6858 0.265869 25.0652 0.265869H36.8932V3.64528H25.0652C23.9387 3.64528 23.3755 4.20852 23.3755 5.33499V12.0938C23.3755 13.2203 23.9387 13.7835 25.0652 13.7835H36.8932V17.1629ZM45.0583 17.1629H56.8863V13.7835H45.0583C43.9319 13.7835 43.3686 13.2203 43.3686 12.0938V5.335C43.3686 4.20853 43.9319 3.6453 45.0583 3.6453H56.8863V0.265882H45.0583C41.6789 0.265882 39.9892 1.95559 39.9892 5.335V12.0938C39.9892 15.4732 41.6789 17.1629 45.0583 17.1629ZM8.26684 30.1171H6.64472V23.6286H4.21154C3.81502 23.6286 3.54468 23.8984 3.40049 24.4391L1.80541 30.1165H0.15625C1.15656 26.8723 1.69727 24.9798 1.77837 24.4391C2.256 22.817 3.06704 22.0071 4.21154 22.0071H8.26684V30.1171ZM16.9196 30.1174H18.5417V22.0073H16.9196L12.0532 27.6301V22.0073H10.4306V30.1174H12.0532L16.9196 24.4946V30.1174ZM28.34 26.0617C28.656 26.6024 28.8132 27.2332 28.8132 27.9541C28.8132 29.3966 28.0027 30.117 26.3805 30.117H20.7031V28.4948H26.3805C26.9213 28.4948 27.191 28.2251 27.191 27.6843C27.191 27.1436 26.9213 26.8733 26.3805 26.8733H23.9474V25.2517H26.3805C26.9213 25.2517 27.191 24.9808 27.191 24.4401C27.191 23.8994 26.9213 23.6302 26.3805 23.6302H20.7031V22.0081H26.7185C28.1153 22.0081 28.8137 22.818 28.8137 24.4401C28.8132 24.9803 28.656 25.521 28.34 26.0617ZM37.4645 30.1171H39.0866V22.0071H37.4645L32.5987 27.6299V22.0071H30.9766V30.1171H32.5987L37.4645 24.4943V30.1171ZM49.3619 30.1174H47.7398V26.8731H42.8729V30.1174H41.2508V22.0073H42.8729V25.251H47.7398V22.0073H49.3619V30.1174ZM53.1464 23.6289H58.0128V22.0068H51.5243V30.1179H53.1464V23.6289Z" fill="#002D67"/>
</svg>
