<svg width="61" height="81" viewBox="0 0 61 81" fill="none" xmlns="http://www.w3.org/2000/svg">
<path d="M53.4483 52.3369C58.546 52.9367 66.5 57.794 48.3191 68.5313C42.2283 72.1284 25.7126 81.1269 6.87279 78.7276" stroke="#00AEEF" stroke-width="2.5" stroke-linecap="round"/>
<path d="M5.86909 53.9609C2.62754 54.5415 -1.69594 63.831 14.6298 69.0568C30.9555 74.2826 48.5602 74.2816 55.5847 71.9592" stroke="#00AEEF" stroke-width="2.5" stroke-linecap="round"/>
<path d="M49.4898 61.2667C45.8364 55.5836 47.8666 50.3064 50.3016 44.2174C52.7365 38.1283 60.0432 25.1384 57.8478 22.1412C55.6524 19.144 45.1303 13.3074 40.2839 13.3074L39.2314 6.2613C38.8655 3.81234 36.7624 2 34.2862 2H27.9746" stroke="#444C58" stroke-width="2.5" stroke-linecap="round"/>
<path d="M10.7641 61.2667C14.4175 55.5836 12.3873 50.3064 9.95234 44.2174C7.51738 38.1283 0.210736 25.1384 2.40613 22.1412C4.60153 19.144 15.1236 13.3074 19.97 13.3074L21.0225 6.2613C21.3884 3.81234 23.4915 2 25.9677 2H32.2793" stroke="#444C58" stroke-width="2.5" stroke-linecap="round"/>
</svg>
