<svg width="76" height="56" viewBox="0 0 76 56" fill="none" xmlns="http://www.w3.org/2000/svg">
<path d="M24.7276 48.07L14.4413 53.44C14.1965 53.5678 13.8945 53.4729 13.7667 53.2281L2.25511 31.1776C2.12731 30.9328 2.22216 30.6307 2.46696 30.5029L12.7533 25.1329C12.9981 25.0051 13.3001 25.1 13.4279 25.3448L24.9395 47.3953C25.0673 47.6401 24.9724 47.9422 24.7276 48.07Z" stroke="#363B42" stroke-width="3"/>
<path fill-rule="evenodd" clip-rule="evenodd" d="M72.751 30.6814C76.0793 28.3071 76.9203 23.7757 74.666 20.3651C73.5404 18.6625 71.8176 17.5089 69.8147 17.117C67.8112 16.7247 65.7812 17.1436 64.0975 18.2961L51.1795 26.8282C51.7659 27.6557 52.1656 28.6244 52.3167 29.6724L65.7509 20.7994L65.7716 20.7857L65.792 20.7717C66.812 20.0735 68.0238 19.8233 69.2381 20.0611L69.2387 20.0612C70.4522 20.2986 71.481 20.9874 72.1633 22.0194L48.4757 44.3143H22.7202L24.2864 47.3143H49.4361L72.751 30.6814ZM18.9932 37.1751L19.2291 37.6271L19.1127 37.1751H18.9932ZM71.0087 28.2392L48.4757 44.3143L72.1634 22.0195C73.527 24.0826 73.0219 26.803 71.0088 28.2391L71.0087 28.2392Z" fill="#363B42"/>
<path fill-rule="evenodd" clip-rule="evenodd" d="M36.5595 26.0685L35.6852 25.214C34.8541 24.4018 32.5305 22.6367 27.5504 22.6367C21.1497 22.6367 18.7667 25.2968 18.614 25.471L18.5598 25.5329L18.5023 25.5918L15.4661 28.6954L16.5701 29.7753L16.7112 29.9133H15.2019L13.4189 26.498L16.3578 23.4939C17.0003 22.7607 20.1712 19.6367 27.5504 19.6367C33.3429 19.6367 36.4113 21.7289 37.782 23.0685H45.8785C49.497 23.0685 52.4406 26.0122 52.4403 29.6302C52.4403 33.2484 49.4968 36.192 45.8785 36.192H33.2082V33.192H45.8785C47.8399 33.192 49.4403 31.5916 49.4403 29.6302V29.63C49.4404 27.6691 47.8402 26.0685 45.8785 26.0685H37.782H36.5595Z" fill="#363B42"/>
<circle r="8.09373" transform="matrix(1 0 0 -1 52.396 9.75588)" stroke="#00AEEF" stroke-width="3"/>
<line x1="1.5" y1="-1.5" x2="26.5432" y2="-1.5" transform="matrix(-1 -8.74228e-08 -8.74228e-08 1 45.0166 10.5605)" stroke="#00AEEF" stroke-width="3" stroke-linecap="round"/>
<line x1="1.5" y1="-1.5" x2="8.83171" y2="-1.5" transform="matrix(4.37114e-08 -1 -1 -4.37114e-08 22.877 10.3315)" stroke="#00AEEF" stroke-width="3" stroke-linecap="round"/>
<line x1="1.5" y1="-1.5" x2="5.87979" y2="-1.5" transform="matrix(4.37114e-08 -1 -1 -4.37114e-08 30.2568 10.3315)" stroke="#00AEEF" stroke-width="3" stroke-linecap="round"/>
</svg>
