<svg width="81" height="54" viewBox="0 0 81 54" fill="none" xmlns="http://www.w3.org/2000/svg">
<path d="M24.5381 9.646H30.4575C32.1438 9.646 33.8026 10.0724 35.2798 10.8856L39.7492 13.3458M11.8916 33.166L34.4821 49.6674C37.6243 51.9627 41.8857 51.9786 45.0449 49.707L60.0897 38.8891" stroke="#444C58" stroke-width="3" stroke-linecap="round"/>
<rect x="17.8418" y="2.03836" width="8.89215" height="32.6765" rx="1.5" transform="rotate(28.9233 17.8418 2.03836)" stroke="#444C58" stroke-width="3" stroke-linecap="round"/>
<path d="M45.0822 8.58887L39.9528 13.3457L27.7485 25.326M45.0822 8.58887H54.5059M45.0822 8.58887L27.7485 25.326M68.2526 33.166L60.2933 38.8891L45.0822 27.0878C44.581 27.675 42.4998 29.29 38.1841 31.0518C33.8684 32.8136 29.4288 27.9687 27.7485 25.326" stroke="#00AEEF" stroke-width="3" stroke-linecap="round"/>
<rect x="-0.507911" y="2.05962" width="8.89215" height="32.6765" rx="1.5" transform="matrix(-0.855843 0.517236 0.517236 0.855843 60.5395 0.706591)" stroke="#00AEEF" stroke-width="3" stroke-linecap="round"/>
</svg>
