<svg xmlns="http://www.w3.org/2000/svg" width="56.886" height="16.897" viewBox="0 0 56.886 16.897">
  <path id="tssLogoTop" d="M16.9,3.645H10.138V17.163H6.759V3.645H0V.266H16.9Zm20,13.518H25.065Q20,17.163,20,12.094V5.335Q20,.266,25.065.266H36.893V3.645H25.065a1.493,1.493,0,0,0-1.69,1.69v6.759a1.493,1.493,0,0,0,1.69,1.69H36.893Zm8.165,0H56.886V13.783H45.058a1.494,1.494,0,0,1-1.69-1.69V5.335a1.494,1.494,0,0,1,1.69-1.69H56.886V.266H45.058q-5.069,0-5.069,5.069v6.759Q39.989,17.163,45.058,17.163Z" transform="translate(0 -0.266)" fill="#00386C" fill-rule="evenodd"/>
</svg>
