<svg width="23" height="23" viewBox="0 0 23 23" fill="none" xmlns="http://www.w3.org/2000/svg">
<path d="M18.5178 23C16.6649 23 15.4284 21.7342 14.5586 20.6308C13.7266 19.5761 12.7629 19.008 11.7718 18.9894C11.754 18.9889 11.7357 18.9889 11.7179 18.9889C10.5649 18.9889 9.35002 19.6981 8.20142 21.0419C7.09111 22.3411 5.84005 22.9995 4.48223 22.9995C2.01032 23 0 21.0223 0 18.5905C0 17.9347 0.15045 17.3119 0.42277 16.7512L0.410907 16.7448C1.16855 15.2355 1.97149 13.7199 2.74747 12.2536C4.28918 9.34218 5.88373 6.33156 7.17793 3.26472C8.06661 1.15968 9.60185 0 11.5 0C13.4688 0 15.1453 1.2557 15.746 2.99523L22.6037 16.7772C22.9331 17.4186 23 17.948 23 18.5905C22.9995 21.0223 20.9886 23 18.5178 23ZM15.7169 19.7538C16.4239 20.6488 17.3088 21.5623 18.5178 21.5623C20.183 21.5623 21.5386 20.2286 21.5386 18.5905C21.5386 18.0552 21.482 17.7804 21.2944 17.4175L15.6463 6.06578C15.3772 6.72891 14.9577 7.34324 14.426 7.82122C13.6203 8.54642 12.6319 8.89655 11.6434 8.81061L11.5965 8.80637C8.45756 8.52944 6.70069 8.37507 6.01962 9.13952C5.36875 10.4164 4.70116 11.6764 4.04328 12.9188C3.78929 13.3984 3.53261 13.8838 3.27539 14.3729C3.60002 14.2732 3.94082 14.2064 4.29457 14.1745C8.67111 13.7745 12.62 15.7045 15.7169 19.7538ZM5.39517 15.5613C5.07594 15.5613 4.75401 15.5761 4.42884 15.6058C2.76472 15.7581 1.46082 17.0695 1.46082 18.591C1.46082 20.2292 2.81595 21.5629 4.48169 21.5629C5.40111 21.5629 6.2515 21.0902 7.08248 20.1178C8.43815 18.5305 9.94157 17.6515 11.4515 17.5592C9.604 16.2387 7.56133 15.5613 5.39517 15.5613ZM8.15451 7.14483C9.13001 7.14483 10.3061 7.24881 11.727 7.37401L11.7734 7.37772C12.5095 7.44403 13.0859 7.07745 13.4397 6.75968C14.0959 6.16923 14.5203 5.24668 14.5203 4.40955C14.5203 2.77082 13.1647 1.43714 11.4995 1.43714C10.1939 1.43714 9.19364 2.23767 8.52767 3.81698C8.0445 4.95968 7.52305 6.09231 6.97949 7.21273C7.33485 7.16499 7.72527 7.14483 8.15451 7.14483Z" fill="#7F838A"/>
</svg>
