<svg width="86" height="86" viewBox="0 0 86 86" fill="none" xmlns="http://www.w3.org/2000/svg">
<circle cx="43" cy="43" r="43" fill="white"/>
<mask id="path-2-inside-1" fill="white">
<path fill-rule="evenodd" clip-rule="evenodd" d="M41.8625 44.8972L43.3625 44.8972L43.3625 43.3972L43.3625 30.2944L43.3625 28.7944C43.8648 28.7944 44.3654 28.8179 44.8625 28.8644C47.5178 29.1128 50.0783 30.0179 52.3088 31.5082C54.9569 33.2776 57.0208 35.7925 58.2396 38.7349C59.4584 41.6773 59.7772 44.9151 59.1559 48.0387C58.5346 51.1623 57.0009 54.0316 54.7489 56.2836C52.4969 58.5356 49.6277 60.0693 46.504 60.6906C43.3804 61.3119 40.1427 60.993 37.2003 59.7742C34.2579 58.5555 31.743 56.4915 29.9736 53.8434C28.4832 51.613 27.5782 49.0525 27.3298 46.3972C27.2833 45.9 27.2598 45.3995 27.2598 44.8972L28.7598 44.8972L41.8625 44.8972ZM28.837 46.3972L43.3625 46.3972L44.8625 46.3972L44.8625 44.8972L44.8625 30.3717C47.2205 30.6152 49.4919 31.4301 51.4754 32.7554C53.8768 34.36 55.7485 36.6407 56.8538 39.309C57.959 41.9773 58.2482 44.9134 57.6847 47.7461C57.1213 50.5787 55.7305 53.1807 53.6883 55.2229C51.646 57.2652 49.0441 58.656 46.2114 59.2194C43.3787 59.7829 40.4426 59.4937 37.7743 58.3884C35.106 57.2832 32.8254 55.4115 31.2208 53.0101C29.8954 51.0266 29.0805 48.7552 28.837 46.3972Z"/>
</mask>
<path fill-rule="evenodd" clip-rule="evenodd" d="M41.8625 44.8972L43.3625 44.8972L43.3625 43.3972L43.3625 30.2944L43.3625 28.7944C43.8648 28.7944 44.3654 28.8179 44.8625 28.8644C47.5178 29.1128 50.0783 30.0179 52.3088 31.5082C54.9569 33.2776 57.0208 35.7925 58.2396 38.7349C59.4584 41.6773 59.7772 44.9151 59.1559 48.0387C58.5346 51.1623 57.0009 54.0316 54.7489 56.2836C52.4969 58.5356 49.6277 60.0693 46.504 60.6906C43.3804 61.3119 40.1427 60.993 37.2003 59.7742C34.2579 58.5555 31.743 56.4915 29.9736 53.8434C28.4832 51.613 27.5782 49.0525 27.3298 46.3972C27.2833 45.9 27.2598 45.3995 27.2598 44.8972L28.7598 44.8972L41.8625 44.8972ZM28.837 46.3972L43.3625 46.3972L44.8625 46.3972L44.8625 44.8972L44.8625 30.3717C47.2205 30.6152 49.4919 31.4301 51.4754 32.7554C53.8768 34.36 55.7485 36.6407 56.8538 39.309C57.959 41.9773 58.2482 44.9134 57.6847 47.7461C57.1213 50.5787 55.7305 53.1807 53.6883 55.2229C51.646 57.2652 49.0441 58.656 46.2114 59.2194C43.3787 59.7829 40.4426 59.4937 37.7743 58.3884C35.106 57.2832 32.8254 55.4115 31.2208 53.0101C29.8954 51.0266 29.0805 48.7552 28.837 46.3972Z" fill="white"/>
<path d="M43.3625 44.8972L44.8625 44.8972L44.8625 46.3972L43.3625 46.3972L43.3625 44.8972ZM41.8625 44.8972L41.8625 46.3972L41.8625 44.8972ZM43.3625 43.3972L41.8625 43.3972L43.3625 43.3972ZM43.3625 30.2944L44.8625 30.2944L43.3625 30.2944ZM43.3625 28.7944L41.8625 28.7944L41.8625 27.2944L43.3625 27.2944L43.3625 28.7944ZM44.8625 28.8644L44.7228 30.3579L44.8625 28.8644ZM52.3088 31.5082L51.4754 32.7554L52.3088 31.5082ZM58.2396 38.7349L59.6254 38.1609L59.6254 38.1609L58.2396 38.7349ZM54.7489 56.2836L55.8096 57.3443L55.8096 57.3443L54.7489 56.2836ZM37.2003 59.7742L36.6263 61.1601L36.6263 61.1601L37.2003 59.7742ZM29.9736 53.8434L31.2208 53.0101L31.2208 53.0101L29.9736 53.8434ZM27.3298 46.3972L25.8363 46.5369L25.8363 46.5369L27.3298 46.3972ZM27.2598 44.8972L25.7598 44.8972L25.7598 43.3972L27.2598 43.3972L27.2598 44.8972ZM28.7598 44.8972L28.7598 43.3972L28.7598 44.8972ZM43.3625 46.3972L43.3625 44.8972L43.3625 46.3972ZM28.837 46.3972L27.3449 46.5513L27.1741 44.8972L28.837 44.8972L28.837 46.3972ZM44.8625 46.3972L46.3625 46.3972L46.3625 47.8972L44.8625 47.8972L44.8625 46.3972ZM44.8625 44.8972L43.3625 44.8972L44.8625 44.8972ZM44.8625 30.3717L43.3625 30.3717L43.3625 28.7088L45.0166 28.8796L44.8625 30.3717ZM51.4754 32.7554L52.3088 31.5082L51.4754 32.7554ZM56.8538 39.309L55.4679 39.883L56.8538 39.309ZM57.6847 47.7461L59.1559 48.0387L59.1559 48.0387L57.6847 47.7461ZM53.6883 55.2229L52.6276 54.1623L52.6276 54.1623L53.6883 55.2229ZM37.7743 58.3884L37.2003 59.7742L37.2003 59.7742L37.7743 58.3884ZM31.2208 53.0101L32.468 52.1767L32.468 52.1767L31.2208 53.0101ZM43.3625 46.3972L41.8625 46.3972L41.8625 43.3972L43.3625 43.3972L43.3625 46.3972ZM44.8625 43.3972L44.8625 44.8972L41.8625 44.8972L41.8625 43.3972L44.8625 43.3972ZM44.8625 30.2944L44.8625 43.3972L41.8625 43.3972L41.8625 30.2944L44.8625 30.2944ZM44.8625 28.7944L44.8625 30.2944L41.8625 30.2944L41.8625 28.7944L44.8625 28.7944ZM44.7228 30.3579C44.272 30.3157 43.8181 30.2944 43.3625 30.2944L43.3625 27.2944C43.9116 27.2944 44.4587 27.3201 45.0023 27.371L44.7228 30.3579ZM51.4754 32.7554C49.4527 31.4039 47.1308 30.5832 44.7228 30.3579L45.0023 27.371C47.9049 27.6425 50.7039 28.6319 53.1421 30.261L51.4754 32.7554ZM56.8538 39.309C55.7485 36.6407 53.8768 34.36 51.4754 32.7554L53.1421 30.261C56.0369 32.1952 58.2931 34.9444 59.6254 38.1609L56.8538 39.309ZM57.6847 47.7461C58.2482 44.9134 57.959 41.9773 56.8538 39.309L59.6254 38.1609C60.9577 41.3774 61.3063 44.9167 60.6271 48.3313L57.6847 47.7461ZM53.6883 55.2229C55.7305 53.1807 57.1213 50.5787 57.6847 47.7461L60.6271 48.3313C59.9479 51.7459 58.2714 54.8825 55.8096 57.3443L53.6883 55.2229ZM46.2114 59.2194C49.0441 58.656 51.646 57.2652 53.6883 55.2229L55.8096 57.3443C53.3478 59.806 50.2113 61.4826 46.7967 62.1618L46.2114 59.2194ZM37.7743 58.3884C40.4426 59.4937 43.3787 59.7829 46.2114 59.2194L46.7967 62.1618C43.3821 62.841 39.8427 62.4924 36.6263 61.1601L37.7743 58.3884ZM31.2208 53.0101C32.8254 55.4115 35.106 57.2832 37.7743 58.3884L36.6263 61.1601C33.4098 59.8277 30.6606 57.5716 28.7264 54.6768L31.2208 53.0101ZM28.8232 46.2575C29.0485 48.6654 29.8693 50.9874 31.2208 53.0101L28.7264 54.6768C27.0972 52.2386 26.1078 49.4396 25.8363 46.5369L28.8232 46.2575ZM28.7598 44.8972C28.7598 45.3527 28.7811 45.8066 28.8232 46.2575L25.8363 46.5369C25.7854 45.9934 25.7598 45.4463 25.7598 44.8972L28.7598 44.8972ZM28.7598 46.3972L27.2598 46.3972L27.2598 43.3972L28.7598 43.3972L28.7598 46.3972ZM41.8625 46.3972L28.7598 46.3972L28.7598 43.3972L41.8625 43.3972L41.8625 46.3972ZM43.3625 47.8972L28.837 47.8972L28.837 44.8972L43.3625 44.8972L43.3625 47.8972ZM44.8625 47.8972L43.3625 47.8972L43.3625 44.8972L44.8625 44.8972L44.8625 47.8972ZM46.3625 44.8972L46.3625 46.3972L43.3625 46.3972L43.3625 44.8972L46.3625 44.8972ZM46.3625 30.3717L46.3625 44.8972L43.3625 44.8972L43.3625 30.3717L46.3625 30.3717ZM50.6421 34.0026C48.8623 32.8134 46.8242 32.0822 44.7085 31.8637L45.0166 28.8796C47.6168 29.1481 50.1215 30.0467 52.3088 31.5082L50.6421 34.0026ZM55.4679 39.883C54.4762 37.4888 52.7968 35.4424 50.6421 34.0026L52.3088 31.5082C54.9569 33.2776 57.0208 35.7925 58.2396 38.7349L55.4679 39.883ZM56.2136 47.4534C56.7191 44.9117 56.4597 42.2772 55.4679 39.883L58.2396 38.7349C59.4584 41.6773 59.7772 44.9151 59.1559 48.0387L56.2136 47.4534ZM52.6276 54.1623C54.4601 52.3298 55.708 49.9951 56.2136 47.4534L59.1559 48.0387C58.5346 51.1623 57.0009 54.0316 54.7489 56.2836L52.6276 54.1623ZM45.9188 57.7482C48.4605 57.2427 50.7952 55.9947 52.6276 54.1623L54.7489 56.2836C52.4969 58.5356 49.6277 60.0693 46.504 60.6906L45.9188 57.7482ZM38.3483 57.0026C40.7426 57.9943 43.3771 58.2538 45.9188 57.7482L46.504 60.6906C43.3804 61.3119 40.1427 60.993 37.2003 59.7742L38.3483 57.0026ZM32.468 52.1767C33.9077 54.3315 35.9541 56.0109 38.3483 57.0026L37.2003 59.7742C34.2579 58.5555 31.743 56.4915 29.9736 53.8434L32.468 52.1767ZM30.3291 46.2431C30.5475 48.3589 31.2788 50.397 32.468 52.1767L29.9736 53.8434C28.5121 51.6562 27.6134 49.1515 27.3449 46.5513L30.3291 46.2431Z" fill="#444C58" mask="url(#path-2-inside-1)"/>
<path d="M31.7941 29.8953C29.138 32.0301 26.9453 35.4967 26.7623 40.9939L39.448 40.9939L39.448 26.8196C37.2533 27.021 34.2954 27.8849 31.7941 29.8953Z" stroke="#00AEEF" stroke-width="1.5"/>
</svg>
