<svg width="86" height="86" viewBox="0 0 86 86" fill="none" xmlns="http://www.w3.org/2000/svg">
<circle cx="43" cy="43" r="43" fill="white"/>
<rect x="58.0586" y="31.4427" width="25.8072" height="30.3084" rx="5.25" transform="rotate(90 58.0586 31.4427)" stroke="#444C58" stroke-width="1.5"/>
<line x1="28.2695" y1="43.4149" x2="39.8058" y2="43.4149" stroke="#444C58" stroke-width="1.5" stroke-linecap="round"/>
<line x1="46" y1="43.4149" x2="57.5362" y2="43.4149" stroke="#444C58" stroke-width="1.5" stroke-linecap="round"/>
<rect x="40.7852" y="42.1938" width="4.20358" height="2.98139" stroke="#00AEEF" stroke-width="1.5"/>
<mask id="path-6-inside-1" fill="white">
<path fill-rule="evenodd" clip-rule="evenodd" d="M40.6407 29.5H45.2619C45.8919 29.5 46.4026 30.0107 46.4026 30.6407C46.4026 30.7747 46.3795 30.9033 46.3371 31.0227H47.8752C47.8933 30.898 47.9026 30.7704 47.9026 30.6407C47.9026 29.1823 46.7203 28 45.2619 28H40.6407C39.1823 28 38 29.1823 38 30.6407C38 30.7704 38.0094 30.898 38.0274 31.0227H39.5655C39.5231 30.9033 39.5 30.7747 39.5 30.6407C39.5 30.0107 40.0107 29.5 40.6407 29.5Z"/>
</mask>
<path fill-rule="evenodd" clip-rule="evenodd" d="M40.6407 29.5H45.2619C45.8919 29.5 46.4026 30.0107 46.4026 30.6407C46.4026 30.7747 46.3795 30.9033 46.3371 31.0227H47.8752C47.8933 30.898 47.9026 30.7704 47.9026 30.6407C47.9026 29.1823 46.7203 28 45.2619 28H40.6407C39.1823 28 38 29.1823 38 30.6407C38 30.7704 38.0094 30.898 38.0274 31.0227H39.5655C39.5231 30.9033 39.5 30.7747 39.5 30.6407C39.5 30.0107 40.0107 29.5 40.6407 29.5Z" fill="white"/>
<path d="M46.3371 31.0227L44.9237 30.5205L44.2122 32.5227H46.3371V31.0227ZM47.8752 31.0227V32.5227H49.1735L49.3597 31.2378L47.8752 31.0227ZM38.0274 31.0227L36.5429 31.2378L36.7291 32.5227H38.0274V31.0227ZM39.5655 31.0227V32.5227H41.6904L40.979 30.5205L39.5655 31.0227ZM45.2619 28H40.6407V31H45.2619V28ZM47.9026 30.6407C47.9026 29.1823 46.7203 28 45.2619 28V31C45.0635 31 44.9026 30.8391 44.9026 30.6407H47.9026ZM47.7505 31.525C47.8494 31.2466 47.9026 30.9482 47.9026 30.6407H44.9026C44.9026 30.6012 44.9096 30.56 44.9237 30.5205L47.7505 31.525ZM46.3371 32.5227H47.8752V29.5227H46.3371V32.5227ZM49.3597 31.2378C49.388 31.0421 49.4026 30.8426 49.4026 30.6407H46.4026C46.4026 30.6982 46.3985 30.7539 46.3907 30.8076L49.3597 31.2378ZM49.4026 30.6407C49.4026 28.3539 47.5488 26.5 45.2619 26.5V29.5C45.8919 29.5 46.4026 30.0107 46.4026 30.6407H49.4026ZM45.2619 26.5H40.6407V29.5H45.2619V26.5ZM40.6407 26.5C38.3539 26.5 36.5 28.3539 36.5 30.6407H39.5C39.5 30.0107 40.0107 29.5 40.6407 29.5V26.5ZM36.5 30.6407C36.5 30.8426 36.5146 31.0421 36.5429 31.2378L39.5119 30.8076C39.5041 30.7539 39.5 30.6982 39.5 30.6407H36.5ZM38.0274 32.5227H39.5655V29.5227H38.0274V32.5227ZM38 30.6407C38 30.9482 38.0532 31.2465 38.1521 31.525L40.979 30.5205C40.993 30.56 41 30.6012 41 30.6407H38ZM40.6407 28C39.1823 28 38 29.1823 38 30.6407H41C41 30.8391 40.8391 31 40.6407 31V28Z" fill="#444C58" mask="url(#path-6-inside-1)"/>
</svg>
