<svg width="111" height="42" viewBox="0 0 111 42" fill="none" xmlns="http://www.w3.org/2000/svg">
<path d="M0 22.8083V31.8961L16.2824 22.0469V39.0179L19.5996 41L22.9032 39.0179L22.9037 22.0469L39 31.7826V22.6953L19.5859 11L0 22.8083Z" fill="white"/>
<path d="M0.713893 34.2242L14.195 41.9659V29.7466L11.1182 27.7457L0.713893 34.2242ZM24.8642 29.7466L24.8456 42L38.2567 34.0664L28.0679 27.7457L24.8642 29.7466ZM19.5854 0L0 12.0383V20.8198L19.5972 8.77507L39 20.7041V11.9216L19.5854 0Z" fill="white"/>
<path fill-rule="evenodd" clip-rule="evenodd" d="M68.8971 12.6453H62.1382V26.1629H58.7588V12.6453H52V9.26587H68.8971V12.6453ZM88.8932 26.1629H77.0652C73.6858 26.1629 71.9961 24.4732 71.9961 21.0938V14.335C71.9961 10.9556 73.6858 9.26587 77.0652 9.26587H88.8932V12.6453H77.0652C75.9387 12.6453 75.3755 13.2085 75.3755 14.335V21.0938C75.3755 22.2203 75.9387 22.7835 77.0652 22.7835H88.8932V26.1629ZM97.0583 26.1629H108.886V22.7835H97.0583C95.9319 22.7835 95.3686 22.2203 95.3686 21.0938V14.335C95.3686 13.2085 95.9319 12.6453 97.0583 12.6453H108.886V9.26588H97.0583C93.6789 9.26588 91.9892 10.9556 91.9892 14.335V21.0938C91.9892 24.4732 93.6789 26.1629 97.0583 26.1629ZM60.2668 39.1171H58.6447V32.6286H56.2115C55.815 32.6286 55.5447 32.8984 55.4005 33.4391L53.8054 39.1165H52.1562C53.1566 35.8723 53.6973 33.9798 53.7784 33.4391C54.256 31.817 55.067 31.0071 56.2115 31.0071H60.2668V39.1171ZM68.9196 39.1174H70.5417V31.0073H68.9196L64.0532 36.6301V31.0073H62.4306V39.1174H64.0532L68.9196 33.4946V39.1174ZM80.34 35.0617C80.656 35.6024 80.8132 36.2332 80.8132 36.9541C80.8132 38.3966 80.0027 39.117 78.3805 39.117H72.7031V37.4948H78.3805C78.9213 37.4948 79.191 37.2251 79.191 36.6843C79.191 36.1436 78.9213 35.8733 78.3805 35.8733H75.9474V34.2517H78.3805C78.9213 34.2517 79.191 33.9808 79.191 33.4401C79.191 32.8994 78.9213 32.6302 78.3805 32.6302H72.7031V31.0081H78.7185C80.1153 31.0081 80.8137 31.818 80.8137 33.4401C80.8132 33.9803 80.656 34.521 80.34 35.0617ZM89.4645 39.1171H91.0866V31.0071H89.4645L84.5987 36.6299V31.0071H82.9766V39.1171H84.5987L89.4645 33.4943V39.1171ZM101.362 39.1174H99.7398V35.8731H94.8729V39.1174H93.2508V31.0073H94.8729V34.251H99.7398V31.0073H101.362V39.1174ZM105.146 32.6289H110.013V31.0068H103.524V39.1179H105.146V32.6289Z" fill="white"/>
</svg>
