<svg width="59" height="31" viewBox="0 0 59 31" fill="none" xmlns="http://www.w3.org/2000/svg">
<path fill-rule="evenodd" clip-rule="evenodd" d="M16.8971 3.64504H10.1382V17.1627H6.75883V3.64504H0V0.265625H16.8971V3.64504ZM36.8932 17.1627H25.0652C21.6858 17.1627 19.9961 15.473 19.9961 12.0936V5.33475C19.9961 1.95533 21.6858 0.265625 25.0652 0.265625H36.8932V3.64504H25.0652C23.9387 3.64504 23.3755 4.20827 23.3755 5.33475V12.0936C23.3755 13.22 23.9387 13.7833 25.0652 13.7833H36.8932V17.1627ZM45.0583 17.1627H56.8863V13.7833H45.0583C43.9319 13.7833 43.3686 13.2201 43.3686 12.0936V5.33476C43.3686 4.20829 43.9319 3.64505 45.0583 3.64505H56.8863V0.265638H45.0583C41.6789 0.265638 39.9892 1.95534 39.9892 5.33476V12.0936C39.9892 15.473 41.6789 17.1627 45.0583 17.1627ZM8.26684 30.1169H6.64472V23.6284H4.21154C3.81502 23.6284 3.54468 23.8982 3.40049 24.4389L1.80541 30.1163H0.15625C1.15656 26.8721 1.69727 24.9796 1.77837 24.4389C2.256 22.8168 3.06704 22.0068 4.21154 22.0068H8.26684V30.1169ZM16.9196 30.1171H18.5417V22.0071H16.9196L12.0532 27.6299V22.0071H10.4306V30.1171H12.0532L16.9196 24.4943V30.1171ZM28.34 26.0614C28.656 26.6021 28.8132 27.233 28.8132 27.9539C28.8132 29.3963 28.0027 30.1167 26.3805 30.1167H20.7031V28.4946H26.3805C26.9213 28.4946 27.191 28.2248 27.191 27.6841C27.191 27.1434 26.9213 26.873 26.3805 26.873H23.9474V25.2515H26.3805C26.9213 25.2515 27.191 24.9806 27.191 24.4399C27.191 23.8992 26.9213 23.6299 26.3805 23.6299H20.7031V22.0078H26.7185C28.1153 22.0078 28.8137 22.8177 28.8137 24.4399C28.8132 24.98 28.656 25.5207 28.34 26.0614ZM37.4645 30.1169H39.0866V22.0068H37.4645L32.5987 27.6296V22.0068H30.9766V30.1169H32.5987L37.4645 24.4941V30.1169ZM49.3619 30.1171H47.7398V26.8729H42.8729V30.1171H41.2508V22.0071H42.8729V25.2508H47.7398V22.0071H49.3619V30.1171ZM53.1464 23.6286H58.0128V22.0065H51.5243V30.1177H53.1464V23.6286Z" fill="white"/>
</svg>
