<svg width="128" height="140" viewBox="0 0 128 140" fill="none" xmlns="http://www.w3.org/2000/svg">
<g filter="url(#filter0_d)">
<path d="M36.6802 69.3433C37.8935 74.7797 40.6817 79.7321 44.6925 83.5742L64.9707 103L84.2782 82.5976C88.097 78.5624 90.6406 73.4784 91.5876 67.9887C92.5345 62.4989 91.8422 56.8499 89.5982 51.7561C87.3542 46.6622 83.6592 42.3522 78.9806 39.3712C74.302 36.3901 68.8499 34.8719 63.3136 35.0085C57.7774 35.1451 52.4057 36.9303 47.878 40.1385C43.3502 43.3467 39.8696 47.8337 37.8765 53.0321C35.8833 58.2305 35.467 63.9068 36.6802 69.3433Z" fill="white"/>
</g>
<path d="M54 63.9041V68.448L62.7674 63.5234V72.009L64.5537 73L66.3325 72.009L66.3328 63.5234L75 68.3913V63.8477L64.5463 58L54 63.9041Z" fill="#002D67"/>
<path d="M54.3844 69.9269L61.6435 73.9821V67.5816L59.9867 66.5335L54.3844 69.9269ZM67.3884 67.5816L67.3784 74L74.5998 69.8443L69.1135 66.5335L67.3884 67.5816ZM64.546 52L54 58.3058V62.9056L64.5523 56.5965L75 62.845V58.2446L64.546 52Z" fill="#00AEEF"/>
<defs>
<filter id="filter0_d" x="0" y="0" width="128" height="140" filterUnits="userSpaceOnUse" color-interpolation-filters="sRGB">
<feFlood flood-opacity="0" result="BackgroundImageFix"/>
<feColorMatrix in="SourceAlpha" type="matrix" values="0 0 0 0 0 0 0 0 0 0 0 0 0 0 0 0 0 0 127 0"/>
<feOffset dy="1"/>
<feGaussianBlur stdDeviation="18"/>
<feColorMatrix type="matrix" values="0 0 0 0 0.0833333 0 0 0 0 0.0833333 0 0 0 0 0.0833333 0 0 0 0.12 0"/>
<feBlend mode="normal" in2="BackgroundImageFix" result="effect1_dropShadow"/>
<feBlend mode="normal" in="SourceGraphic" in2="effect1_dropShadow" result="shape"/>
</filter>
</defs>
</svg>
