<svg width="154" height="154" viewBox="0 0 154 154" fill="none" xmlns="http://www.w3.org/2000/svg">
<circle cx="77" cy="77" r="77" transform="rotate(90 77 77)" fill="#F9F9F9"/>
<path d="M60.595 76.1307L74.9319 43.8788C75.817 41.8875 78.1332 40.9712 80.1411 41.8178L110.578 54.652C112.614 55.5103 113.568 57.8563 112.71 59.8919L91.9246 109.185C91.0757 111.198 88.7686 112.157 86.7425 111.34L59.7417 100.448" stroke="#444C58" stroke-width="3" stroke-linecap="round"/>
<path fill-rule="evenodd" clip-rule="evenodd" d="M67.862 56.3282L60.6095 58.7762C53.2527 61.2595 47.5973 67.2164 45.4993 74.6922L39.3574 96.577L39 97.8505L40.2188 98.3645L55.7739 104.924L56.8322 105.37L57.539 104.465C58.0641 103.792 59.7909 101.654 62.405 98.6023C63.9576 96.79 64.8395 94.2384 65.3434 91.9505C65.7804 89.9666 65.9654 88.029 66.0068 86.6306C66.6895 85.9553 67.5315 84.98 68.4168 83.8749C69.5663 82.4399 70.859 80.6968 72.0906 78.8975C74.0806 75.9904 73.2347 72.9114 71.2383 71.1531C69.2943 69.4411 66.1392 68.8934 63.5929 70.9369L63.5059 71.0067L63.4303 71.0885L53.4782 81.8533C52.9158 82.4616 52.953 83.4107 53.5613 83.973C54.1696 84.5354 55.1186 84.4982 55.681 83.8899L65.5504 73.2145C66.7658 72.2988 68.2462 72.5155 69.2555 73.4045C70.2346 74.2668 70.6612 75.6747 69.6151 77.2029C68.4227 78.9449 67.1745 80.6272 66.0754 81.9993C64.9525 83.401 64.052 84.3942 63.5441 84.8262L63.0133 85.2777L63.016 85.9744C63.0205 87.1796 62.8735 89.2175 62.4137 91.3051C61.9461 93.4279 61.1979 95.4002 60.1267 96.6505C58.2106 98.8871 56.7582 100.648 55.8929 101.718L42.6032 96.1141L48.3877 75.5028C50.2179 68.9814 55.1513 63.7849 61.5689 61.6187L66.1975 60.0563L67.862 56.3282Z" fill="#00AEEF"/>
<line x1="77.9244" y1="54.0159" x2="100.789" y2="63.8722" stroke="#444C58" stroke-width="3" stroke-linecap="round"/>
<line x1="74.5123" y1="62.5483" x2="83.5105" y2="66.4273" stroke="#444C58" stroke-width="3" stroke-linecap="round"/>
</svg>
