<svg width="63" height="75" viewBox="0 0 63 75" fill="none" xmlns="http://www.w3.org/2000/svg">
<path d="M38.9328 36.3985C38.9328 37.6719 39.0041 30.9258 38.9328 44.2046C40.0005 42.8122 42.4337 40.6149 46.5492 36.3985C47.8789 35.0363 50.0142 34.4755 51.8586 34.4755C56.8192 34.4755 60.8421 38.4941 60.8421 43.4495C60.8421 45.7335 59.9875 47.8186 58.5802 49.403L33.5402 72.8007C32.9575 73.2894 32.2759 73.5527 31.4557 73.5527C30.6356 73.5527 29.8842 73.2581 29.3017 72.7695L4.26193 49.3717C2.85474 47.7875 2 45.7025 2 43.4183C2 38.4629 6.0228 34.4442 10.9833 34.4442C12.8279 34.4442 14.9632 35.0051 16.293 36.3673C20.4083 40.5837 22.8805 42.7811 23.948 44.1734C23.948 22.0127 23.948 19.0608 23.948 12.2588" stroke="#444C58" stroke-width="2.5" stroke-linecap="round"/>
<circle cx="36.3245" cy="7.35526" r="6.10526" stroke="#00AEEF" stroke-width="2.5" stroke-linecap="round"/>
<circle cx="51.035" cy="23.9051" r="6.10526" stroke="#00AEEF" stroke-width="2.5" stroke-linecap="round"/>
<line x1="31.0273" y1="27.6268" x2="54.5648" y2="4.08926" stroke="#00AEEF" stroke-width="2.5" stroke-linecap="round"/>
</svg>
