<svg width="70" height="74" viewBox="0 0 70 74" fill="none" xmlns="http://www.w3.org/2000/svg">
<path d="M25.892 68.5875C26.3275 70.5621 28.0956 72 30.0973 72H39.9041C41.9059 72 43.674 70.5621 44.1095 68.5817L44.653 66.1405C45.1456 63.9273 46.6916 62.1629 48.648 61.0171V61.0171C50.6337 59.8541 53.026 59.3438 55.2183 60.0435L57.4699 60.7621C59.4255 61.3746 61.5541 60.5375 62.5348 58.77L67.4295 50.2125C68.4246 48.4188 68.0901 46.2021 66.6219 44.805L64.871 43.178C63.1767 41.6036 62.4021 39.3129 62.4021 37V37V37C62.4021 34.6877 63.1746 32.3959 64.8686 30.8221L66.6075 29.2067C68.0901 27.7979 68.4246 25.5813 67.4382 23.8021L62.5233 15.2096C61.5541 13.4596 59.4168 12.6283 57.4756 13.2379L55.2175 13.9579C53.0257 14.6568 50.6341 14.1462 48.649 12.9835V12.9835C46.692 11.8373 45.1458 10.0721 44.6534 7.85829L44.1095 5.4125C43.674 3.43792 41.9059 2 39.9041 2H30.0973C28.0956 2 26.3275 3.43792 25.892 5.41542L25.3482 7.85922C24.8558 10.0725 23.3098 11.8371 21.3533 12.983V12.983C19.3677 14.146 16.9756 14.6563 14.7834 13.9566L12.5316 13.2379C10.5789 12.6225 8.44738 13.4625 7.46669 15.2271L2.57195 23.7846C1.57685 25.5813 1.91143 27.7979 3.37957 29.195L5.13046 30.822C6.82476 32.3964 7.59938 34.6871 7.59938 37V37V37C7.59938 39.3128 6.82462 41.6035 5.13018 43.1777L3.40323 44.7821C3.39521 44.7895 3.38726 44.7972 3.37957 44.805V44.805C1.91143 46.2021 1.57684 48.4188 2.56041 50.195L7.47535 58.7875C8.44738 60.5375 10.5789 61.3775 12.5259 60.7621" stroke="#444C58" stroke-width="2.5"/>
<path d="M35.5 50C42.4036 50 48 44.4036 48 37.5C48 30.5964 42.4036 25 35.5 25C28.5964 25 23 30.5964 23 37.5C23 40.6614 24.1736 43.5487 26.109 45.75" stroke="#00AEEF" stroke-width="2.5" stroke-linecap="round"/>
</svg>
